#!OML:ASF F:\VICON\USERDATA\INSTALL\rory3\rory3.ASF
:FULLY-SPECIFIED
:DEGREES
1
root -0.42998099999999956 18.1925 -35.88879999999997 7.925019999999995 -6.283879999999993 1.6473800000000023
lfemur 15.857400000000041 -4.321449999999994 -31.267499999999984
ltibia 33.785700000000034
lfoot 29.740899999999957 -23.224900000000016
ltoes -13.2451
rfemur -40.99520000000002 3.873420000000001 22.49050000000001
rtibia 26.42980000000003
rfoot -1.582420000000012 -2.1479399999999984
rtoes -20.592899999999982
lowerback 13.740499999999999 -0.9074589999999987 -3.2893900000000067
upperback -1.1525700000000003 -1.637410000000005 1.35917
thorax -8.8411 -0.5939209999999999 3.668159999999998
lowerneck -18.2886 -1.5193099999999986 -1.8711399999999998
upperneck 13.183199999999998 -1.7164100000000007 0.8344369999999968
head 7.05351 -0.8419730000000001 0.3827290000000003
lclavicle 5.5013699999999924e-14 2.3854199999999977e-15
lhumerus -41.1733 -13.963400000000002 94.3249
lradius 122.453
lwrist 37.4124
lhand -24.880699999999987 -0.5495270000000005
lfingers nan
lthumb 1.626759999999991 29.424
rclavicle 5.5013699999999924e-14 2.3854199999999977e-15
rhumerus -67.26169999999996 5.14736000000001 -90.97460000000001
rradius 105.258
rwrist -13.4593
rhand -21.746100000000002 41.11039999999999
rfingers nan
rthumb 4.653909999999999 11.1815
2
root -0.41674499999999964 18.1125 -34.266300000000044 7.157369999999994 -4.5311700000000075 1.6125799999999986
lfemur 13.149300000000025 -5.139019999999993 -30.245099999999987
ltibia 45.80840000000002
lfoot 31.863599999999984 -23.821300000000036
ltoes -6.962700000000002
rfemur -39.77869999999997 1.4156300000000002 23.918800000000008
rtibia 24.290000000000077
rfoot -1.4132599999999909 -4.330079999999998
rtoes -23.0
lowerback 13.9002 -1.373750000000001 -1.9559999999999915
upperback -0.18556499999999854 -2.0604599999999986 1.0163199999999992
thorax -7.902990000000002 -0.8984849999999982 2.6106199999999995
lowerneck -20.5251 -2.1090500000000034 -1.2690099999999995
upperneck 13.256599999999999 -2.6216899999999925 0.7285770000000027
head 7.45289 -1.2452900000000007 0.12683800000000056
lclavicle 3.1308599999999887e-15 7.553819999999997e-15
lhumerus -40.3959 -14.996399999999996 94.0095
lradius 118.98400000000001
lwrist 38.0013
lhand -26.520000000000003 -0.8430449999999987
lfingers nan
lthumb 0.043507299999991034 29.1367
rclavicle 3.1308599999999887e-15 7.553819999999997e-15
rhumerus -63.50360000000001 2.399759999999988 -90.09969999999998
rradius 103.789
rwrist -13.7532
rhand -18.9557 40.09729999999999
rfingers nan
rthumb 7.347930000000001 10.2449
3
root -0.4083409999999999 17.9014 -32.68960000000004 6.040560000000005 -5.972120000000003 0.2282350000000033
lfemur 9.258720000000043 -2.296770000000003 -27.688600000000008
ltibia 58.8023
lfoot 37.840100000000085 -20.875599999999988
ltoes -2.5781200000000117
rfemur -38.6342 -0.09525459999999786 27.5053
rtibia 27.628400000000042
rfoot 0.39318500000000345 -2.3683299999999923
rtoes -21.232400000000023
lowerback 14.2358 -1.0305800000000036 -1.1496899999999979
upperback 0.2709589999999976 -1.4285299999999959 1.6272200000000003
thorax -7.639749999999998 -0.6194989999999982 2.678820000000002
lowerneck -19.0264 -1.8892599999999997 -1.9051500000000008
upperneck 12.0288 -2.2164800000000033 1.0306799999999972
head 6.80876 -1.062020000000001 0.3941910000000001
lclavicle 2.981770000000009e-15 -8.34895999999998e-15
lhumerus -41.20990000000002 -13.0686 94.4097
lradius 114.392
lwrist 37.553799999999995
lhand -26.1795 0.35571600000000025
lfingers nan
lthumb 0.3723489999999954 30.3351
rclavicle 2.981770000000009e-15 -8.34895999999998e-15
rhumerus -60.89350000000003 2.4320099999999947 -89.7563
rradius 102.33199999999997
rwrist -12.8996
rhand -19.5001 40.5248
rfingers nan
rthumb 6.82238 10.654699999999997
4
root -0.4045600000000007 17.5801 -31.120200000000033 4.656140000000001 -7.350199999999978 -0.8423059999999999
lfemur 4.3923299999999585 1.6039299999999974 -24.370799999999996
ltibia 72.22459999999997
lfoot 39.048999999999936 -19.74490000000001
ltoes 5.145119999999979
rfemur -38.20810000000003 -0.1043409999999998 29.3588
rtibia 36.80659999999996
rfoot -1.8275900000000047 5.252890000000016
rtoes 6.677630000000002
lowerback 16.290199999999995 -0.503802000000001 -0.3570599999999986
upperback 0.027805799999997993 -0.5617450000000018 1.8967500000000004
thorax -9.11278 -0.20628500000000066 2.385930000000001
lowerneck -18.7014 -2.0349099999999987 -2.4822800000000003
upperneck 13.280300000000004 -2.375759999999997 1.58023
head 7.180820000000001 -1.117269999999997 0.647125
lclavicle -2.8823799999999954e-15 1.03368e-14
lhumerus -42.831700000000005 -11.6935 95.0915
lradius 109.251
lwrist 36.32970000000002
lhand -25.928699999999996 -0.23478500000000052
lfingers nan
lthumb 0.614605000000009 29.7441
rclavicle -2.8823799999999954e-15 1.03368e-14
rhumerus -58.62580000000001 2.521859999999993 -90.2704
rradius 100.773
rwrist -12.532399999999997
rhand -20.850799999999996 41.474900000000005
rfingers nan
rthumb 5.518369999999999 11.566700000000004
5
root -0.43746500000000044 17.264 -29.570099999999996 3.5093 -7.702650000000007 -1.2586999999999993
lfemur -0.5908179999999668 4.323030000000007 -21.0275
ltibia 84.2928
lfoot 36.22110000000003 -19.666599999999978
ltoes 6.751059999999967
rfemur -36.79779999999997 2.14843 29.6159
rtibia 47.07029999999998
rfoot -9.85943999999998 -0.2674979999999927
rtoes 10.731999999999994
lowerback 17.468399999999995 -0.3189129999999995 -0.5126040000000012
upperback 0.09318579999999865 -0.2994850000000008 2.3229500000000005
thorax -9.71594 -0.05574900000000055 2.8972999999999973
lowerneck -17.848300000000002 -2.00265 -3.1418400000000015
upperneck 13.358199999999997 -2.1957699999999996 1.6288600000000013
head 7.06776 -1.065880000000001 0.796158
lclavicle -2.981770000000012e-16 -1.5107599999999982e-14
lhumerus -44.46589999999999 -9.330509999999997 95.886
lradius 104.31399999999998
lwrist 36.165299999999995
lhand -27.08359999999999 0.6741390000000002
lfingers nan
lthumb -0.5008490000000076 30.6533
rclavicle -2.981770000000012e-16 -1.5107599999999982e-14
rhumerus -55.0677 4.165120000000012 -91.3585
rradius 99.57570000000001
rwrist -12.2166
rhand -21.8064 40.8647
rfingers nan
rthumb 4.595700000000001 10.934600000000007
6
root -0.5062309999999999 16.9776 -28.126000000000033 3.47131 -6.496829999999993 -4.7335100000000025
lfemur -8.784880000000017 5.888379999999984 -13.331900000000015
ltibia 95.87019999999998
lfoot 32.77070000000001 -20.47099999999998
ltoes 16.224299999999985
rfemur -33.67320000000002 4.996189999999997 33.68959999999999
rtibia 52.6982
rfoot -17.023799999999966 -8.534250000000002
rtoes 8.614980000000008
lowerback 18.590099999999996 -0.49964599999999876 2.4430000000000014
upperback 0.09031479999999881 0.22619799999999946 3.44827
thorax -10.380800000000002 0.08294799999999941 2.3294600000000045
lowerneck -17.3473 -2.096469999999998 -2.93105
upperneck 12.6628 -2.3205900000000033 1.2452899999999976
head 6.75307 -1.1507400000000019 0.628733
lclavicle -5.069010000000007e-15 1.3914900000000002e-14
lhumerus -45.5412 -8.046549999999996 96.3842
lradius 98.98590000000002
lwrist 35.78560000000001
lhand -29.9644 1.424960000000001
lfingers nan
lthumb -3.283099999999999 31.379399999999997
rclavicle -5.069010000000007e-15 1.3914900000000002e-14
rhumerus -49.9394 5.494590000000006 -92.5462
rradius 98.66630000000002
rwrist -11.426299999999994
rhand -20.781499999999998 40.26089999999999
rfingers nan
rthumb 5.585299999999997 10.354500000000007
7
root -0.5724010000000003 16.801299999999998 -26.682299999999955 3.7854699999999997 -4.7187900000000065 -6.260399999999988
lfemur -19.17439999999999 6.5491799999999945 -9.258629999999997
ltibia 104.03299999999996
lfoot 27.94160000000005 -19.300099999999986
ltoes 11.508099999999986
rfemur -29.293399999999977 7.211019999999994 35.66020000000001
rtibia 54.932300000000005
rfoot -21.73290000000003 -14.755499999999993
rtoes 2.22731
lowerback 18.708800000000007 -0.41980700000000154 3.592819999999999
upperback 0.22581600000000102 0.6313470000000003 3.9218000000000024
thorax -10.3035 0.2307419999999998 2.0850000000000017
lowerneck -18.6705 -2.4134500000000023 -2.19654
upperneck 12.9496 -2.837379999999995 0.8694960000000034
head 7.06141 -1.3910500000000012 0.3168999999999997
lclavicle -4.472659999999996e-15 4.373259999999993e-15
lhumerus -47.04760000000001 -7.934629999999995 96.7914
lradius 95.0737
lwrist 33.01059999999999
lhand -30.3222 1.5007199999999974
lfingers nan
lthumb -3.628649999999999 31.4496
rclavicle -4.472659999999996e-15 4.373259999999993e-15
rhumerus -44.037699999999994 6.921120000000005 -93.36550000000001
rradius 99.03480000000002
rwrist -9.745749999999996
rhand -21.246199999999995 41.0377
rfingers nan
rthumb 5.136679999999998 11.119999999999994
8
root -0.6290199999999999 16.8199 -25.22930000000008 4.1005899999999995 -1.6615599999999988 -5.779379999999998
lfemur -29.374700000000022 4.900870000000005 -9.486539999999993
ltibia 107.2660000000001
lfoot 19.68449999999999 -16.887499999999996
ltoes -0.41776900000001227
rfemur -23.328699999999994 6.219650000000003 35.738
rtibia 54.167100000000005
rfoot -27.229900000000004 -16.59249999999999
rtoes 7.767480000000013
lowerback 18.245300000000007 -0.6013530000000009 2.988629999999998
upperback -0.13716899999999954 0.27728200000000014 4.108940000000006
thorax -10.446800000000001 0.10159699999999977 2.7329999999999988
lowerneck -17.371600000000004 -2.8388899999999975 -2.42162
upperneck 12.2228 -3.4264600000000014 1.1348000000000011
head 6.62633 -1.6672399999999994 0.3930940000000004
lclavicle -1.2424000000000002e-14 -3.299830000000004e-14
lhumerus -50.9175 -8.704530000000009 98.3886
lradius 95.69040000000001
lwrist 30.4306
lhand -32.0835 0.11723999999999996
lfingers nan
lthumb -5.32932 30.0302
rclavicle -1.2424000000000002e-14 -3.299830000000004e-14
rhumerus -41.26260000000001 8.589769999999996 -93.93649999999998
rradius 103.19699999999999
rwrist -12.435899999999998
rhand -20.962399999999995 40.70380000000001
rfingers nan
rthumb 5.410649999999997 10.792800000000002
9
root -0.6565799999999999 16.9537 -23.67680000000006 4.64455 0.5501920000000007 -4.90324
lfemur -37.66729999999997 3.003739999999996 -11.405100000000013
ltibia 105.11600000000007
lfoot 14.45689999999999 -13.145599999999995
ltoes 3.8242599999999953
rfemur -15.682200000000002 5.285419999999993 35.5353
rtibia 49.61940000000001
rfoot -27.335100000000033 -18.871499999999983
rtoes -0.982012000000001
lowerback 16.773 0.06289649999999963 2.9558200000000014
upperback -0.20836499999999902 0.998578 3.3744999999999994
thorax -9.69003 0.427112 1.7383900000000017
lowerneck -18.0938 -4.08007 -2.05948
upperneck 12.7665 -5.29698 1.7890700000000015
head 6.96452 -2.48185 0.32318899999999956
lclavicle 1.6896699999999948e-15 2.703470000000001e-14
lhumerus -54.30799999999999 -12.4336 99.8391
lradius 98.17990000000003
lwrist 30.0093
lhand -31.8897 2.1662899999999974
lfingers nan
lthumb -5.14225 32.0839
rclavicle 1.6896699999999948e-15 2.703470000000001e-14
rhumerus -39.58659999999998 8.432179999999995 -94.89
rradius 108.928
rwrist -16.7851
rhand -21.830900000000003 38.0219
rfingers nan
rthumb 4.572060000000002 8.091230000000001
